PathFileType	4	(X/Y/Z)	C:\Users\Alexander Denk\OneDrive - Universitaet Duisburg-Essen\Dokumente\GitHub\artisynth_dissertation_models\src\artisynth\models\gait_model\Models\EP010DR1980_BE_3Gang01\Input\EP010DR1980_BE_3Gang01_positions.trc
DataRate	CameraRate	NumFrames	NumMarkers	Units	OrigDataRate	OrigDataStartFrame	OrigNumFrames
100	100	4	41	m	100	12	103
Frame#	Time	LFHD			RFHD			LBHD			RBHD			C7			T10			CLAV			STRN			RBAK			LSHO			LUPA			LELB			LFRM			LWRA			LWRB			LFIN			RSHO			RUPA			RELB			RFRM			RWRA			RWRB			RFIN			LASI			RASI			LPSI			RPSI			LTHI			LKNE			LTIB			LANK			LTOE			LBTO			LHEE			RKNE			RTIB			RANK			RTOE			RBTO			RHEE			RTHI			
		X1	Y1	Z1	X2	Y2	Z2	X3	Y3	Z3	X4	Y4	Z4	X5	Y5	Z5	X6	Y6	Z6	X7	Y7	Z7	X8	Y8	Z8	X9	Y9	Z9	X10	Y10	Z10	X11	Y11	Z11	X12	Y12	Z12	X13	Y13	Z13	X14	Y14	Z14	X15	Y15	Z15	X16	Y16	Z16	X17	Y17	Z17	X18	Y18	Z18	X19	Y19	Z19	X20	Y20	Z20	X21	Y21	Z21	X22	Y22	Z22	X23	Y23	Z23	X24	Y24	Z24	X25	Y25	Z25	X26	Y26	Z26	X27	Y27	Z27	X28	Y28	Z28	X29	Y29	Z29	X30	Y30	Z30	X31	Y31	Z31	X32	Y32	Z32	X33	Y33	Z33	X34	Y34	Z34	X35	Y35	Z35	X36	Y36	Z36	X37	Y37	Z37	X38	Y38	Z38	X39	Y39	Z39	X40	Y40	Z40	X41	Y41	Z41	X42	Y42	Z42	X43	Y43	Z43	

13	0.12	0.173305541992188	1.72836279296875	0.0184558697868797	0.301733947753906	1.73553698730469	0.0202751446892235	0.166370330810547	1.65435961914063	0.156410632722518	0.316915557861328	1.66097607421875	0.152261773221633	0.249643402099609	1.55438732910156	0.208025056951186	0.236763259887695	1.27486059570312	0.279251577489516	0.238778167724609	1.42034521484375	0.0632661038567039	0.232120483398437	1.28861291503906	0.0421179486443016	0.398638122558594	1.45143286132813	0.233625143163345	0.0498389701843262	1.50583874511719	0.150843464963576	0.00673794031143189	1.35961950683594	0.151125434034011	-0.0252683448791504	1.16333227539063	0.145941143148086	-0.0197574214935303	0.91957861328125	0.102221746556899	0.0271973285675049	0.886777404785156	0.0880897198845359	-0.023675931930542	0.883554260253906	0.146846866719863	-0.0142139272689819	0.805169372558594	0.0598530865837547	0.438146820068359	1.50680786132813	0.130902166478774	0.507442230224609	1.24211169433594	0.131869367711684	0.52305908203125	1.14796862792969	0.122371534459731	0.503963134765625	0.930491271972656	0.0574377957512351	0.449344818115234	0.896225463867187	0.0215413342644187	0.496078887939453	0.875809326171875	0.0826626721550437	0.488049468994141	0.802670349121094	-0.0128991869758157	0.108901779174805	1.0560380859375	0.0829009915520164	0.372912353515625	1.03724890136719	0.0726083356071922	0.212880844116211	1.09478930664063	0.256564115636489	0.279957794189453	1.0880830078125	0.249975195043227	0.0772608184814453	0.685326416015625	0.0518423978020164	0.100030342102051	0.526296508789063	0.0297437878776999	0.102071113586426	0.366733062744141	0.0150753308464499	0.155737030029297	0.0672052764892578	0.0149483319450827	0.17059489440918	0.0396849822998047	-0.141318849451402	0.199129180908203	0.0328291091918946	-0.198741548426011	0.192141830444336	0.0322368927001953	0.0787631360222312	0.384437072753906	0.499834991455078	0.193958578221938	0.386645812988281	0.397847961425781	0.314479719274184	0.319670257568359	0.216352676391602	0.532891233556411	0.301147399902344	0.0651231079101562	0.478016142003676	0.285019744873047	0.0367576065063476	0.432639555089614	0.266075439453125	0.247482620239258	0.582358030431411	0.398844390869141	0.646486389160156	0.14349035655751
14	0.13	0.172884185791016	1.73038073730469	0.0186282583498489	0.301300170898438	1.7377421875	0.0205424276613723	0.16592643737793	1.65636059570313	0.156553063037349	0.316494354248047	1.66318371582031	0.152518730761958	0.24908219909668	1.55639331054688	0.208224070193721	0.235995407104492	1.27675268554687	0.278993950488521	0.238685333251953	1.42261572265625	0.0632006918215285	0.23220915222168	1.29077819824219	0.0420723043703566	0.398037048339844	1.45352075195313	0.234099312426997	0.0494985885620117	1.50785412597656	0.150319279315425	0.00644720411300659	1.3616044921875	0.150217257144404	-0.0253182983398437	1.16529467773438	0.144707005145503	-0.0192092704772949	0.921586364746094	0.100798348071528	0.0279291114807129	0.888773132324219	0.087116097094966	-0.02342604637146	0.885526184082031	0.145352289798213	-0.0131212253570557	0.807111267089844	0.058414192798091	0.43786572265625	1.50894763183594	0.131706490161372	0.507249969482422	1.2442919921875	0.1333603292727	0.522891540527344	1.15014099121094	0.124211861255122	0.503965057373047	0.932420288085937	0.0597925497316847	0.449408905029297	0.898029724121094	0.0238720785402785	0.496016021728516	0.877800842285156	0.0851587225222121	0.48804296875	0.804317199707031	-0.0101964181638231	0.108295486450195	1.05813354492187	0.0825520559572707	0.372119232177734	1.03937097167969	0.0728202825808058	0.212319351196289	1.0968349609375	0.256212296130611	0.279450500488281	1.090087890625	0.249968140246821	0.0769415588378906	0.68589404296875	0.056410919787837	0.0995020294189453	0.526607849121094	0.036356087329341	0.101586532592773	0.36682421875	0.0240194937014113	0.155754013061523	0.0671203155517578	0.0283820120119581	0.170907531738281	0.0393721504211426	-0.127715232250737	0.199520126342773	0.0329872589111328	-0.184879783031987	0.19201432800293	0.032215087890625	0.0924571081423292	0.385392974853516	0.499703155517578	0.180060410144282	0.387889312744141	0.398892486572266	0.300408882739497	0.321384063720703	0.224405410766602	0.524001564624263	0.304519775390625	0.0715133285522461	0.472815376880122	0.289006652832031	0.039476993560791	0.428910408618403	0.268048980712891	0.256711029052734	0.573549507739497	0.398964263916016	0.646834777832031	0.134032169940425
15	0.14	0.172608047485352	1.73236962890625	0.0188212767956305	0.301015350341797	1.73989587402344	0.0208513060925055	0.165592239379883	1.65833666992188	0.156717902314429	0.316186370849609	1.66533544921875	0.152816859376197	0.248576904296875	1.55839599609375	0.20845842851377	0.235226943969727	1.27867260742188	0.278873835694556	0.238694152832031	1.42483056640625	0.0632098723766852	0.232382217407227	1.29286560058594	0.0421552153942633	0.397462310791016	1.45558166503906	0.23469710077024	0.0492350006103516	1.50986706542969	0.149775622498755	0.00621097469329834	1.363595703125	0.149283263337379	-0.0253534107208252	1.16728198242187	0.143405314576392	-0.0186324977874756	0.923650085449219	0.0991861831066656	0.0286864433288574	0.890838745117188	0.085943354737525	-0.023162561416626	0.8875244140625	0.143644538056617	-0.012004566192627	0.809147827148437	0.0567004729626226	0.437656646728516	1.51102429199219	0.132642249238257	0.507140197753906	1.24641296386719	0.134977770936255	0.52279638671875	1.15225085449219	0.126161395203834	0.503981903076172	0.934329711914063	0.062166628968482	0.449482696533203	0.89985009765625	0.0262093840954351	0.495956634521484	0.879762451171875	0.0876454421398687	0.488020294189453	0.805992797851563	-0.00755141912722113	0.107695388793945	1.060130859375	0.0824271193859625	0.371329833984375	1.0415771484375	0.0732072326061773	0.211761932373047	1.09885778808594	0.256042376649146	0.278938842773438	1.09210229492188	0.250146567475562	0.0768384704589844	0.686349365234375	0.0614816314098882	0.099159553527832	0.526851318359375	0.0435206481335211	0.101256469726563	0.366862548828125	0.0334922210094976	0.155810363769531	0.0670719528198242	0.0418991881725835	0.171142440795898	0.0392443885803223	-0.114079968321557	0.1996630859375	0.0332781677246094	-0.171035595762963	0.191948333740234	0.0321942710876465	0.106186724793677	0.386055206298828	0.500048706054688	0.166135195863013	0.388739562988281	0.399867523193359	0.285992808472877	0.322795104980469	0.231108459472656	0.513642626893287	0.308606658935547	0.0776610565185547	0.463944903504615	0.293658782958984	0.0426172866821289	0.42122769464231	0.269456787109375	0.263580841064453	0.563618395936255	0.398944091796875	0.647655822753906	0.124632655274634
16	0.15	0.172480865478516	1.73430578613281	0.0190305916281309	0.300882904052734	1.7419716796875	0.0211986519308653	0.16536784362793	1.66026611328125	0.156901834151324	0.315991485595703	1.66740649414063	0.153154870650348	0.248128189086914	1.56036938476563	0.208726765296039	0.234457107543945	1.28059509277344	0.278889485976275	0.238801696777344	1.42696350097656	0.0632960335226621	0.232630554199219	1.29485498046875	0.0423618904562559	0.396911346435547	1.45758801269531	0.235416520735797	0.0490469551086426	1.51185656738281	0.14921570744234	0.00602870273590088	1.36557250976563	0.14832882084566	-0.0253732490539551	1.16927185058594	0.142043164870318	-0.0180269527435303	0.925747314453125	0.0973929192038144	0.029467414855957	0.892953735351563	0.084572629591998	-0.0228806571960449	0.88952685546875	0.14173137440401	-0.0108686437606812	0.811260070800781	0.0547214790793027	0.437516815185547	1.51301110839844	0.133703572890338	0.507104522705078	1.24844641113281	0.136713346144732	0.522766845703125	1.15427075195313	0.128209951064166	0.504014801025391	0.936190368652344	0.0645518471212949	0.449570251464844	0.901655578613281	0.0285424629660214	0.495902709960937	0.881665771484375	0.0901152931662167	0.487995727539063	0.807668640136719	-0.00497157511991606	0.107106712341309	1.06200439453125	0.0825183845968808	0.370550537109375	1.04384985351563	0.073755246779498	0.211206619262695	1.1008359375	0.256046132704791	0.278425720214844	1.09410632324219	0.250502305647906	0.0769163131713867	0.686721740722656	0.0668990303488339	0.0989961776733398	0.527036499023438	0.0511486641378964	0.10108154296875	0.366855804443359	0.0434140755148495	0.155898727416992	0.0670620498657227	0.0554505592794979	0.171311416625977	0.0392218589782715	-0.100451357224408	0.199615249633789	0.0335761642456055	-0.157231722214643	0.191942489624023	0.0321879920959473	0.119915830275592	0.386458984375	0.500934692382813	0.15235225834566	0.389254364013672	0.400902740478516	0.271468732497271	0.323973907470703	0.236234191894531	0.50191293110567	0.313224639892578	0.083205078125	0.451634656569537	0.298788330078125	0.0458414916992187	0.409763105055865	0.270405090332031	0.267948913574219	0.552639035841998	0.398828765869141	0.648982849121094	0.115370229384478
